<?xml version="1.0" encoding="UTF-8" standalone="no"?>
<!-- Created with Inkscape (http://www.inkscape.org/) -->

<svg
   width="47.670464mm"
   height="58.862068mm"
   viewBox="0 0 47.670464 58.862068"
   version="1.1"
   id="svg5"
   inkscape:version="1.2.2 (732a01da63, 2022-12-09)"
   sodipodi:docname="рисунок-10.svg"
   xml:space="preserve"
   xmlns:inkscape="http://www.inkscape.org/namespaces/inkscape"
   xmlns:sodipodi="http://sodipodi.sourceforge.net/DTD/sodipodi-0.dtd"
   xmlns="http://www.w3.org/2000/svg"
   xmlns:svg="http://www.w3.org/2000/svg"><sodipodi:namedview
     id="namedview7"
     pagecolor="#ffffff"
     bordercolor="#000000"
     borderopacity="0.25"
     inkscape:showpageshadow="2"
     inkscape:pageopacity="0.0"
     inkscape:pagecheckerboard="0"
     inkscape:deskcolor="#d1d1d1"
     inkscape:document-units="mm"
     showgrid="false"
     inkscape:zoom="4.204498"
     inkscape:cx="219.28896"
     inkscape:cy="784.99265"
     inkscape:window-width="1920"
     inkscape:window-height="991"
     inkscape:window-x="-9"
     inkscape:window-y="-9"
     inkscape:window-maximized="1"
     inkscape:current-layer="layer1" /><defs
     id="defs2"><linearGradient
       id="linearGradient3258"
       inkscape:swatch="solid"><stop
         style="stop-color:#000000;stop-opacity:1;"
         offset="0"
         id="stop3256" /></linearGradient><linearGradient
       id="linearGradient3247"
       inkscape:swatch="solid"><stop
         style="stop-color:#ffffff;stop-opacity:1;"
         offset="0"
         id="stop3245" /></linearGradient><linearGradient
       id="linearGradient3241"
       inkscape:swatch="solid"><stop
         style="stop-color:#367aff;stop-opacity:1;"
         offset="0"
         id="stop3239" /></linearGradient><linearGradient
       id="linearGradient10119"
       inkscape:swatch="solid"><stop
         style="stop-color:#000000;stop-opacity:1;"
         offset="0"
         id="stop10117" /></linearGradient></defs><g
     inkscape:label="Слой 1"
     inkscape:groupmode="layer"
     id="layer1"
     transform="translate(-2.325672,-126.88643)"><rect
       style="fill:#0068e2;fill-opacity:1;stroke:none;stroke-width:3.91711;stroke-linecap:round;stroke-linejoin:round;stroke-dashoffset:148.649;stroke-opacity:1;paint-order:fill markers stroke"
       id="rect31506-3"
       width="5.0529895"
       height="6.3423381"
       x="-30.357063"
       y="178.78619"
       rx="4.5149279"
       ry="3.6306946"
       transform="rotate(-18.720973)"
       inkscape:export-filename="..\..\Downloads\packetcode.github.io-master\packetcode.github.io-master\projects\portfolio\images\easy.svg"
       inkscape:export-xdpi="96"
       inkscape:export-ydpi="96" /><rect
       style="fill:#0068e2;fill-opacity:1;stroke:none;stroke-width:3.91711;stroke-linecap:round;stroke-linejoin:round;stroke-dashoffset:148.649;stroke-opacity:1;paint-order:fill markers stroke"
       id="rect31508-5"
       width="5.0529895"
       height="6.3423381"
       x="-14.286721"
       y="178.74327"
       rx="4.5149279"
       ry="3.6306946"
       transform="rotate(-18.720973)" /><circle
       style="fill:#ffbc4b;fill-opacity:1;stroke:none;stroke-width:3.91711;stroke-linecap:round;stroke-linejoin:round;stroke-dashoffset:148.649;stroke-opacity:1;paint-order:fill markers stroke"
       id="circle31510-50"
       cx="-16.566216"
       cy="172.32301"
       r="8.5101032"
       transform="rotate(-18.873868)" /><rect
       style="fill:#005dd0;fill-opacity:1;stroke:none;stroke-width:3.91711;stroke-linecap:round;stroke-linejoin:round;stroke-dashoffset:148.649;stroke-opacity:1;paint-order:fill markers stroke"
       id="rect31512-4"
       width="15.516139"
       height="11.822404"
       x="-27.291862"
       y="175.74783"
       rx="5.1257839"
       ry="5.0592251"
       transform="rotate(-18.720973)" /><rect
       style="fill:#0068e2;fill-opacity:0.909804;stroke:none;stroke-width:3.91711;stroke-linecap:round;stroke-linejoin:round;stroke-dashoffset:148.649;stroke-opacity:1;paint-order:fill markers stroke"
       id="rect31514-8"
       width="5.0529895"
       height="6.3423381"
       x="-22.436607"
       y="182.92"
       rx="4.5149279"
       ry="3.6306946"
       transform="rotate(-18.720973)" /><ellipse
       style="fill:#1f6bff;fill-opacity:1;stroke:none;stroke-width:3.91711;stroke-linecap:round;stroke-linejoin:round;stroke-dashoffset:148.649;stroke-opacity:1;paint-order:fill markers stroke"
       id="ellipse31516-0"
       cx="-20.376909"
       cy="168.21814"
       rx="14.967771"
       ry="13.916521"
       transform="rotate(-18.873868)" /><circle
       style="fill:#0051f0;fill-opacity:1;stroke:none;stroke-width:1.0484;stroke-linecap:round;stroke-linejoin:round;stroke-dashoffset:148.649;stroke-opacity:1;paint-order:fill markers stroke"
       id="circle31518-00"
       cx="-28.80575"
       cy="157.43033"
       r="2.2777035"
       transform="rotate(-18.873868)" /><circle
       style="fill:#0051f0;fill-opacity:1;stroke:none;stroke-width:1.62445;stroke-linecap:round;stroke-linejoin:round;stroke-dashoffset:148.649;stroke-opacity:1;paint-order:fill markers stroke"
       id="circle31520-6"
       cx="-24.100161"
       cy="155.6282"
       r="3.5291896"
       transform="rotate(-18.873868)" /><circle
       style="fill:#1f6bff;fill-opacity:1;stroke:none;stroke-width:3.91711;stroke-linecap:round;stroke-linejoin:round;stroke-dashoffset:148.649;stroke-opacity:1;paint-order:fill markers stroke"
       id="circle31522-5"
       cx="-16.566216"
       cy="172.32301"
       r="8.5101032"
       transform="rotate(-18.873868)" /><circle
       style="fill:#0051f0;fill-opacity:1;stroke:none;stroke-width:2.05071;stroke-linecap:round;stroke-linejoin:round;stroke-dashoffset:148.649;stroke-opacity:1;paint-order:fill markers stroke"
       id="circle31524-05"
       cx="-17.567398"
       cy="156.75453"
       r="4.4552889"
       transform="rotate(-18.873868)" /><path
       id="rect31526-0"
       style="fill:#ffffff;fill-opacity:1;stroke:none;stroke-width:2.0395;stroke-linecap:round;stroke-linejoin:round;stroke-dashoffset:148.649;stroke-opacity:1;paint-order:fill markers stroke"
       d="m 30.249395,164.38649 c -0.354201,0.004 -0.707233,0.0616 -1.051613,0.17932 -2.204034,0.75349 -3.196233,3.64812 -2.224672,6.49004 0.441665,1.29192 1.210724,2.34399 2.125453,3.03651 a 5.8160625,5.9739647 0 0 1 4.250901,-1.89808 5.8160625,5.9739647 0 0 1 1.633494,0.24082 c 0.426738,-1.18597 0.442442,-2.64961 -0.05323,-4.09949 -0.819755,-2.39788 -2.76765,-3.96913 -4.680337,-3.94912 z" /><path
       id="rect31528-41"
       style="fill:#ffffff;fill-opacity:1;stroke:none;stroke-width:2.0395;stroke-linecap:round;stroke-linejoin:round;stroke-dashoffset:148.649;stroke-opacity:1;paint-order:fill markers stroke"
       d="m 40.607419,160.84511 c -0.3542,0.004 -0.707232,0.0621 -1.051613,0.17984 -2.204034,0.75348 -3.196234,3.6481 -2.22467,6.49004 0.585001,1.71119 1.744822,3.00108 3.056142,3.59254 a 4.6844301,4.552845 90 0 1 3.331063,-1.4919 4.6844301,4.552845 90 0 1 1.194759,0.16433 c 0.810464,-1.28854 1.003349,-3.14773 0.375171,-4.98522 -0.819755,-2.39788 -2.768165,-3.96965 -4.680852,-3.94963 z" /><path
       id="rect31530-42"
       style="fill:#1965fa;fill-opacity:1;stroke:none;stroke-width:2.0395;stroke-linecap:round;stroke-linejoin:round;stroke-dashoffset:148.649;stroke-opacity:1;paint-order:fill markers stroke"
       d="m 32.343028,166.41735 c -0.230745,0.002 -0.460367,0.0406 -0.684714,0.11731 -1.435817,0.49085 -2.08245,2.37626 -1.449524,4.22764 0.295265,0.86369 0.815407,1.56248 1.431954,2.0128 a 5.8160625,5.9739647 0 0 1 2.017963,-0.37466 5.8160625,5.9739647 0 0 1 1.264526,0.14367 c 0.711213,-0.83205 0.931345,-2.20202 0.46922,-3.55379 -0.53403,-1.5621 -1.803407,-2.58601 -3.049425,-2.57297 z" /><path
       id="rect31532-94"
       style="fill:#1965fa;fill-opacity:1;stroke:none;stroke-width:2.0395;stroke-linecap:round;stroke-linejoin:round;stroke-dashoffset:148.649;stroke-opacity:1;paint-order:fill markers stroke"
       d="m 39.596115,164.16938 c -0.230745,0.002 -0.460886,0.0406 -0.685232,0.1173 -1.435817,0.49086 -2.081929,2.37628 -1.449007,4.22765 0.632923,1.85137 2.298323,2.94704 3.734139,2.45618 0.06952,-0.0238 0.136812,-0.051 0.202572,-0.0811 a 4.552845,4.6844301 0 0 1 0.297654,-0.16589 c 7.21e-4,-4.6e-4 0.0014,-0.001 0.0021,-0.002 1.075367,-0.71583 1.500151,-2.36073 0.946709,-3.97961 -0.53403,-1.5621 -1.802889,-2.586 -3.048906,-2.57296 z" /><path
       style="fill:#ffffff;fill-opacity:1;stroke:none;stroke-width:1.11917;stroke-linecap:round;stroke-linejoin:round;stroke-dasharray:none;stroke-dashoffset:148.649;stroke-opacity:1;paint-order:fill markers stroke"
       d="m 34.920238,176.93648 7.502685,-2.56492"
       id="path35916-3" /><path
       style="fill:#ffffff;fill-opacity:1;stroke:none;stroke-width:1.11917;stroke-linecap:round;stroke-linejoin:round;stroke-dasharray:none;stroke-dashoffset:148.649;stroke-opacity:1;paint-order:fill markers stroke"
       d="m 34.899053,177.09336 7.837626,-2.67943"
       id="path35920-6" /><path
       style="fill:#ffffff;fill-opacity:1;stroke:none;stroke-width:1.11917;stroke-linecap:round;stroke-linejoin:round;stroke-dasharray:none;stroke-dashoffset:148.649;stroke-opacity:1;paint-order:fill markers stroke"
       d="m 35.288675,176.81053 6.631838,-2.26721"
       id="path35924-0" /><path
       style="fill:#1f6bff;fill-opacity:1;stroke:none;stroke-width:2.35811;stroke-linejoin:round"
       d="M 21.323574,148.96908 8.4695072,130.18236 29.72815,126.88643 Z"
       id="path3253" /><path
       style="fill:#0051f0;fill-opacity:1;stroke:none;stroke-width:2.35811;stroke-linejoin:round"
       d="m 17.816475,152.95755 -15.4908028,-6.42704 0.164807,13.34846 z"
       id="path3255" /></g></svg>
